<mxfile host="app.diagrams.net" modified="2023-11-10T03:57:46.216Z" agent="Mozilla/5.0 (Macintosh; Intel Mac OS X 10_15_7) AppleWebKit/537.36 (KHTML, like Gecko) Chrome/119.0.0.0 Safari/537.36" version="21.8.2" etag="yon3Ua9yhwe5dF3Ch18q" type="github">
  <diagram name="Page-1" id="0mBUHPXKjh0ydl0L0Xko">
    <mxGraphModel>
      <root>
        <mxCell id="0" />
        <mxCell id="1" parent="0" />
      </root>
    </mxGraphModel>
  </diagram>
</mxfile>
